<svg xmlns="http://www.w3.org/2000/svg" width="44" height="41" viewBox="0 0 30 32">
  <path fill="#FE58A1" d="M13.5783784,13.5783784 L18.092973,13.5783784 L18.092973,18.092973 L13.5783784,18.092973 L13.5783784,13.5783784 Z M4.52324324,4.52324324 L9.04648649,4.52324324 L9.04648649,9.04648649 L4.52324324,9.04648649 L4.52324324,4.52324324 Z M9.04648649,9.04648649 L13.5697297,9.04648649 L13.5697297,13.5697297 L9.04648649,13.5697297 L9.04648649,9.04648649 Z M24.8821622,13.5783784 L29.4054054,13.5783784 L29.4054054,18.092973 L24.8821622,18.092973 L24.8821622,13.5783784 Z M4.52324324,22.6248649 L9.04648649,22.6248649 L9.04648649,27.1481081 L4.52324324,27.1481081 L4.52324324,22.6248649 Z M0,27.1481081 L4.52324324,27.1481081 L4.52324324,31.6713514 L0,31.6713514 L0,27.1481081 Z M9.04648649,18.092973 L13.5697297,18.092973 L13.5697297,22.6162162 L9.04648649,22.6162162 L9.04648649,18.092973 Z M15.827027,22.6248649 L20.3589189,22.6248649 L20.3589189,27.1481081 L15.827027,27.1481081 L15.827027,22.6248649 Z M11.3124324,27.1481081 L15.8356757,27.1481081 L15.8356757,31.6713514 L11.3124324,31.6713514 L11.3124324,27.1481081 Z M11.3124324,0 L15.8356757,0 L15.8356757,4.52324324 L11.3124324,4.52324324 L11.3124324,0 Z M20.3589189,18.092973 L24.8821622,18.092973 L24.8821622,22.6162162 L20.3589189,22.6162162 L20.3589189,18.092973 Z M0,0 L4.52324324,0 L4.52324324,4.52324324 L0,4.52324324 L0,0 Z M15.827027,4.52324324 L20.3589189,4.52324324 L20.3589189,9.04648649 L15.827027,9.04648649 L15.827027,4.52324324 Z M20.3589189,9.04648649 L24.8821622,9.04648649 L24.8821622,13.5697297 L20.3589189,13.5697297 L20.3589189,9.04648649 Z"></path>
</svg>