<svg class="core-logo" xmlns="http://www.w3.org/2000/svg" width="258" height="36" viewBox="0 0 258 36">
  <g fill="#FFF">
    <path d="M24.33 7.9V27.64h8.58V7.9zM0 .65V35h24.33v-7.35H8.38V7.9h15.95V.65zM39.09 34.99h25.77v-7.35H47.03v-6.52H62.4v-7.1H47.03V8.04H64.9V.69H39.1zM128.47 0c-10.49 0-18.18 7.7-18.18 17.83 0 10.14 7.7 17.84 18.18 17.84s18.18-7.7 18.18-17.84S138.95 0 128.47 0zm0 28.18c-6.03 0-9.95-4.46-9.95-10.34 0-5.83 3.92-10.33 9.95-10.33 6.02 0 9.94 4.49 9.94 10.32 0 5.89-3.91 10.35-9.94 10.35zM169.48.68h-15.83v34.3h15.83c9.8 0 16.22-7.2 16.22-17.14 0-10.2-6.57-17.15-16.22-17.15zm-.2 27h-7.6V7.99h7.6c4.61 0 8.19 3.67 8.19 9.71 0 6.04-3.58 10-8.19 10zM192.7 34.99h25.78v-7.35h-17.84v-6.52h15.39v-7.1h-15.39V8.04h17.89V.69H192.7zM241.7.69h-15.83v34.3h15.84c9.8 0 16.22-7.2 16.22-17.15 0-10.2-6.57-17.15-16.22-17.15zm-.19 27h-7.6V7.99h7.6c4.6 0 8.18 3.66 8.18 9.7 0 6.04-3.57 10-8.18 10zm-153.72.48h-.1c-5.56 0-10.06-4.06-10.06-10.33 0-6.23 4.5-10.33 10.06-10.33h.1c3.92 0 6.95 1.9 8.59 4.85h8.58c-.23-1.07-.58-2.1-1.06-3.07C100.94 3.67 95.03 0 87.8 0 77.3 0 69.6 7.7 69.6 17.83c0 10.14 7.7 17.84 18.18 17.84 7.24 0 13.15-3.67 16.11-9.28.48-.97.83-2 1.06-3.06H96.4c-1.63 2.95-4.67 4.85-8.6 4.85z"></path>
  </g>
</svg>